<?xml version="1.0" encoding="utf-8"?>
<!-- Generator: Adobe Illustrator 18.0.0, SVG Export Plug-In . SVG Version: 6.00 Build 0)  -->
<!DOCTYPE svg PUBLIC "-//W3C//DTD SVG 1.1//EN" "http://www.w3.org/Graphics/SVG/1.1/DTD/svg11.dtd">
<svg version="1.1" id="图层_1" xmlns="http://www.w3.org/2000/svg" xmlns:xlink="http://www.w3.org/1999/xlink" x="0px" y="0px"
	 viewBox="0 0 48 48" enable-background="new 0 0 48 48" xml:space="preserve">
<path fill="#BCBCBE" d="M42,31.7c0.1-4.4-2.4-7.2-4-8.6c0,0,0,0,0,0c1.2-3.7-1.3-5.4-1.3-5.4c0-0.3,0-0.5,0-0.8
	C36.7,10,31,4.5,24,4.4C17,4.5,11.3,10,11.3,16.8c0,0.3,0,0.5,0,0.8c0,0-2.5,1.7-1.3,5.4c0,0,0,0,0,0c-1.6,1.4-4.1,4.2-4,8.6
	c0,0-0.1,6.1,4,0.2c0.6,1.7,1.4,3.2,2.6,4.6C11,37.1,10,38.1,10,39.3c0,2,3,3.7,6.7,3.7c2.2,0,4.1-0.6,5.3-1.5
	c0.6,0.1,1.2,0.1,1.8,0.1c0.1,0,0.1,0,0.2,0c0,0,0.1,0,0.2,0c0.6,0,1.2-0.1,1.8-0.1c1.2,0.9,3.1,1.5,5.3,1.5c3.7,0,6.7-1.6,6.7-3.7
	c0-1.2-1-2.2-2.6-2.9c1.1-1.3,2-2.9,2.6-4.6C42.1,37.7,42,31.7,42,31.7z"/>
<path fill="#F1F1F3" d="M31.4,42c-1.9,0-3.7-0.5-4.7-1.3l-0.3-0.2l-0.4,0c-0.6,0.1-1.2,0.1-1.7,0.1l-0.2,0c0,0-0.2,0-0.2,0
	c-0.5,0-1.1,0-1.7-0.1l-0.4,0l-0.3,0.2c-1.1,0.8-2.9,1.3-4.7,1.3c-3.2,0-5.7-1.4-5.7-2.7c0-0.7,0.8-1.5,2-2l1.2-0.5l-0.9-1
	c-1.1-1.3-1.9-2.7-2.4-4.2l-0.6-1.9l-1.1,1.6c-1.1,1.6-1.7,2-1.9,2.1C7.1,33.1,7,32.3,7,31.7c-0.1-3.9,2-6.4,3.7-7.9l1-0.8l-0.8-0.5
	c-0.7-2.7,1-3.9,1-4l0.5-0.3l0-0.6c0-0.2,0-0.5,0-0.7c0-6.2,5.2-11.4,11.7-11.4c6.4,0.1,11.6,5.2,11.6,11.4c0,0.2,0,0.5,0,0.7l0,0.6
	l0.5,0.3c0.1,0,1.7,1.3,1,4L36.4,23l1,0.8c1.7,1.5,3.7,4,3.7,7.9c0,0.7-0.1,1.4-0.3,1.7c-0.2-0.1-0.8-0.5-1.9-2.1l-1.1-1.6L37,31.5
	c-0.5,1.6-1.3,3-2.4,4.2l-0.9,1l1.2,0.5c1.2,0.5,2,1.3,2,2C37,40.6,34.6,42,31.4,42z"/>
<g>
	<path fill="#DBDCE0" d="M36.7,24.5l-1.9-1.6l1.5-1.1c0.3-1.7-0.6-2.5-0.7-2.5l-1-0.6l0.1-1.2c0-0.2,0-0.4,0-0.6
		c0-0.4,0-0.8-0.1-1.2c-12.1,4.7-20.1,11.9-22.9,14.7l0.3,0.8c0.5,1.4,1.2,2.8,2.2,3.9l1.7,2.1l-2.5,1.1c-1,0.4-1.4,0.9-1.4,1.1
		c0,0.4,1.7,1.7,4.7,1.7c1.6,0,3.2-0.4,4.1-1.1l0.6-0.5l0.8,0.1c0.6,0.1,1.1,0.1,1.6,0.1l0.2,0l0.1,0c0.5,0,1,0,1.6-0.1l0.8-0.1
		l0.6,0.5c0.9,0.7,2.5,1.1,4.1,1.1c3,0,4.6-1.3,4.7-1.7c0-0.1-0.4-0.6-1.4-1.1l-2.5-1.1l1.7-2.1c1-1.2,1.7-2.5,2.2-3.9l1.3-3.8
		l2.3,3.2c0.1,0.2,0.3,0.4,0.4,0.5C39.9,28,38.2,25.8,36.7,24.5z"/>
</g>
<path fill="#BCBCBE" d="M10.4,31.3c0,0,8-10,24.6-15.9c0,0-18.6,9.1-24.1,16.7L10.4,31.3z"/>
</svg>
